<!--?xml version="1.0" encoding="utf-8"?-->
<!-- Generator: Adobe Illustrator 15.1.0, SVG Export Plug-In . SVG Version: 6.00 Build 0)  -->

<svg version="1.1" id="Layer_1" xmlns="http://www.w3.org/2000/svg" xmlns:xlink="http://www.w3.org/1999/xlink" x="0px" y="0px" width="500px" height="900px" viewBox="0 0 500 900" enable-background="new 0 0 500 900" xml:space="preserve" style="">
<path fill="#7AC143" width="502" height="902" d="M0 0 L502 0 L502 902 L0 902 Z" class="VNXMkrlP_0"></path>
<g>
	<path fill="#FFFFFF" d="M242.764,292.453" class="VNXMkrlP_1"></path>
	<path fill="#FFFFFF" d="M171.97,357.626c-32.889,0-59.551-29.181-59.551-65.173c0-35.994,26.662-65.173,59.551-65.173V357.626z" class="VNXMkrlP_2"></path>
	<path fill="#FFFFFF" d="M387.396,297.416c-2.538,33.672-30.664,60.21-64.989,60.21c-34.307,0-62.427-26.516-64.981-60.171
		L387.396,297.416z" class="VNXMkrlP_3"></path>
	<path fill="#FFFFFF" d="M387.581,292.453c0-0.557-0.008-1.112-0.02-1.666c-0.885-35.224-29.717-63.508-65.155-63.508
		c-34.805,0-63.239,27.286-65.076,61.637c-0.062,1.171-0.094,2.35-0.094,3.536H387.581z" class="VNXMkrlP_4"></path>
	<path fill="#FFFFFF" d="M189.825,372.721L240.266,372.375L240.266,296.825L177.8,296.825L177.8,357.265L189.668,357.265Z" class="VNXMkrlP_5"></path>
	<path fill="#FFFFFF" d="M177.176,292.453h63.09c0-0.557-0.008-1.112-0.021-1.666c-0.855-34.121-27.938-61.73-61.843-63.424
		L177.176,292.453z" class="VNXMkrlP_6"></path>
	<path fill="#FFFFFF" d="M190.709,366.161" class="VNXMkrlP_7"></path>
</g>
<text transform="matrix(1 0 0 1 124.9683 432.5654)" fill="#FFFFFF" font-family="'Calibri'" font-size="30">Brisbane Transit App</text>
<path fill="none" stroke="#FFFFFF" stroke-miterlimit="10" d="M497,759.5L326.037,759.5L267.136,834.5L141.15,834.5L
	82.107,759.5L0,759.5" class="VNXMkrlP_8"></path>
<path fill="none" stroke="#FFFFFF" stroke-miterlimit="10" d="M496.617,521.658L446.5,613.946L446.5,897" class="VNXMkrlP_9"></path>
<path fill="none" stroke="#FFFFFF" stroke-width="0.5" stroke-miterlimit="10" d="M0,406.354L383.935,901.327" class="VNXMkrlP_10"></path>
<path fill="none" stroke="#FFFFFF" stroke-width="0.75" stroke-miterlimit="10" d="M270.959,0L498.344,293.147" class="VNXMkrlP_11"></path>
<path fill="none" stroke="#FFFFFF" stroke-miterlimit="10" d="M497.003,132.282L480.146,110.149L401.416,211.454L
	491.078,327.644L455.5,372.715L455.5,545.5L369.5,545.5L369.5,711.5L143.138,711.5L96.51,650.815L0,808.311" class="VNXMkrlP_12"></path>
<path fill="none" stroke="#FFFFFF" stroke-miterlimit="10" d="M76.186,0.519L30.5,59.015L30.5,182.5L0,182.5" class="VNXMkrlP_13"></path>
<path fill="none" stroke="#FFFFFF" stroke-miterlimit="10" d="M130.5,0L130.5,62.288L496.795,60.367" class="VNXMkrlP_14"></path>
<path fill="none" stroke="#FFFFFF" stroke-width="0.25" stroke-miterlimit="10" d="M497.008,613.454L276.636,897.562" class="VNXMkrlP_15"></path>
<path fill="none" stroke="#FFFFFF" stroke-miterlimit="10" d="M33,58.5L51.5,58.5L51.5,148.654L30.228,182.71" class="VNXMkrlP_16"></path>
<path fill="none" stroke="#FFFFFF" stroke-miterlimit="10" d="M0,335.5L38.5,335.5L38.5,897" class="VNXMkrlP_17"></path>
<style>.VNXMkrlP_0{stroke-dasharray:2808 2810;stroke-dashoffset:2809;animation:VNXMkrlP_draw 2100ms ease-out 0ms forwards;}.VNXMkrlP_1{stroke-dasharray:0 2;stroke-dashoffset:1;animation:VNXMkrlP_draw 2100ms ease-out 0ms forwards;}.VNXMkrlP_2{stroke-dasharray:327 329;stroke-dashoffset:328;animation:VNXMkrlP_draw 2100ms ease-out 0ms forwards;}.VNXMkrlP_3{stroke-dasharray:325 327;stroke-dashoffset:326;animation:VNXMkrlP_draw 2100ms ease-out 0ms forwards;}.VNXMkrlP_4{stroke-dasharray:336 338;stroke-dashoffset:337;animation:VNXMkrlP_draw 2100ms ease-out 0ms forwards;}.VNXMkrlP_5{stroke-dasharray:277 279;stroke-dashoffset:278;animation:VNXMkrlP_draw 2100ms ease-out 0ms forwards;}.VNXMkrlP_6{stroke-dasharray:228 230;stroke-dashoffset:229;animation:VNXMkrlP_draw 2100ms ease-out 0ms forwards;}.VNXMkrlP_7{stroke-dasharray:0 2;stroke-dashoffset:1;animation:VNXMkrlP_draw 2100ms ease-out 0ms forwards;}.VNXMkrlP_8{stroke-dasharray:570 572;stroke-dashoffset:571;animation:VNXMkrlP_draw 2100ms ease-out 0ms forwards;}.VNXMkrlP_9{stroke-dasharray:389 391;stroke-dashoffset:390;animation:VNXMkrlP_draw 2100ms ease-out 0ms forwards;}.VNXMkrlP_10{stroke-dasharray:627 629;stroke-dashoffset:628;animation:VNXMkrlP_draw 2100ms ease-out 0ms forwards;}.VNXMkrlP_11{stroke-dasharray:371 373;stroke-dashoffset:372;animation:VNXMkrlP_draw 2100ms ease-out 0ms forwards;}.VNXMkrlP_12{stroke-dasharray:1273 1275;stroke-dashoffset:1274;animation:VNXMkrlP_draw 2100ms ease-out 0ms forwards;}.VNXMkrlP_13{stroke-dasharray:229 231;stroke-dashoffset:230;animation:VNXMkrlP_draw 2100ms ease-out 0ms forwards;}.VNXMkrlP_14{stroke-dasharray:429 431;stroke-dashoffset:430;animation:VNXMkrlP_draw 2100ms ease-out 0ms forwards;}.VNXMkrlP_15{stroke-dasharray:360 362;stroke-dashoffset:361;animation:VNXMkrlP_draw 2100ms ease-out 0ms forwards;}.VNXMkrlP_16{stroke-dasharray:149 151;stroke-dashoffset:150;animation:VNXMkrlP_draw 2100ms ease-out 0ms forwards;}.VNXMkrlP_17{stroke-dasharray:600 602;stroke-dashoffset:601;animation:VNXMkrlP_draw 2100ms ease-out 0ms forwards;}@keyframes VNXMkrlP_draw{100%{stroke-dashoffset:0;}}@keyframes VNXMkrlP_fade{0%{stroke-opacity:1;}93.65079365079364%{stroke-opacity:1;}100%{stroke-opacity:0;}}</style></svg>
