<?xml version="1.0" encoding="utf-8"?>
<!-- Generator: Adobe Illustrator 15.1.0, SVG Export Plug-In . SVG Version: 6.00 Build 0)  -->
<!DOCTYPE svg PUBLIC "-//W3C//DTD SVG 1.1//EN" "http://www.w3.org/Graphics/SVG/1.1/DTD/svg11.dtd">
<svg version="1.1" id="Layer_1" xmlns="http://www.w3.org/2000/svg" xmlns:xlink="http://www.w3.org/1999/xlink" x="0px" y="0px"
	 width="500px" height="700px" viewBox="0 0 500 700" enable-background="new 0 0 500 700" xml:space="preserve">
<rect fill="#7AC143" width="500" height="700"/>
<g>
	<path fill="#FFFFFF" d="M242.764,222.453"/>
	<path fill="#FFFFFF" d="M171.97,287.626c-32.889,0-59.551-29.181-59.551-65.173c0-35.994,26.662-65.173,59.551-65.173V287.626z"/>
	<path fill="#FFFFFF" d="M387.396,227.416c-2.538,33.672-30.664,60.21-64.989,60.21c-34.307,0-62.427-26.516-64.981-60.171
		L387.396,227.416z"/>
	<path fill="#FFFFFF" d="M387.581,222.453c0-0.557-0.008-1.112-0.02-1.666c-0.885-35.224-29.717-63.508-65.155-63.508
		c-34.805,0-63.239,27.286-65.076,61.637c-0.062,1.171-0.094,2.35-0.094,3.536H387.581z"/>
	<polygon fill="#FFFFFF" points="189.825,302.721 240.266,302.375 240.266,226.825 177.8,226.825 177.8,287.265 189.668,287.265 	
		"/>
	<path fill="#FFFFFF" d="M177.176,222.453h63.09c0-0.557-0.008-1.112-0.021-1.666c-0.855-34.121-27.938-61.73-61.843-63.424
		L177.176,222.453z"/>
	<path fill="#FFFFFF" d="M190.709,296.161"/>
</g>
<text transform="matrix(1 0 0 1 110.6201 362.5654)" fill="#FFFFFF" font-family="'Calibri'" font-size="30">Brisbane Translate App</text>
<polyline fill="none" stroke="#FFFFFF" stroke-miterlimit="10" points="500,592.5 328,592.5 268.744,651.5 142,651.5 82.602,592.5 
	0,592.5 "/>
<polyline fill="none" stroke="#FFFFFF" stroke-miterlimit="10" points="499.919,407.088 449.5,479.084 449.5,700 "/>
<line fill="none" stroke="#FFFFFF" stroke-width="0.5" stroke-miterlimit="10" x1="0" y1="317.092" x2="386.246" y2="703.338"/>
<line fill="none" stroke="#FFFFFF" stroke-width="0.75" stroke-miterlimit="10" x1="272.59" y1="0" x2="501.344" y2="228.753"/>
<polyline fill="none" stroke="#FFFFFF" stroke-miterlimit="10" points="499.995,103.224 483.036,85.953 403.832,165.005 
	494.163,255.672 458.5,290.843 458.5,425.5 371.5,425.5 371.5,555.5 144,555.5 97.091,508 0,630.826 "/>
<polyline fill="none" stroke="#FFFFFF" stroke-miterlimit="10" points="76.552,0.449 30.5,46.052 30.5,142.5 0,142.5 "/>
<polyline fill="none" stroke="#FFFFFF" stroke-miterlimit="10" points="131.5,0 131.5,48.605 500,47.106 "/>
<line fill="none" stroke="#FFFFFF" stroke-width="0.25" stroke-miterlimit="10" x1="500" y1="478.7" x2="278.301" y2="700.399"/>
<polyline fill="none" stroke="#FFFFFF" stroke-miterlimit="10" points="33,45.5 51.5,45.5 51.5,116 30.156,142.5 "/>
<polyline fill="none" stroke="#FFFFFF" stroke-miterlimit="10" points="0,261.5 38.5,261.5 38.5,700 "/>
</svg>
