<?xml version="1.0" encoding="utf-8"?>
<!-- Generator: Adobe Illustrator 15.1.0, SVG Export Plug-In . SVG Version: 6.00 Build 0)  -->
<!DOCTYPE svg PUBLIC "-//W3C//DTD SVG 1.1//EN" "http://www.w3.org/Graphics/SVG/1.1/DTD/svg11.dtd">
<svg version="1.1" id="Layer_2" xmlns="http://www.w3.org/2000/svg" xmlns:xlink="http://www.w3.org/1999/xlink" x="0px" y="0px"
	 width="500px" height="700px" viewBox="0 0 500 700" enable-background="new 0 0 500 700" xml:space="preserve">
<rect fill="#FFFFFF" width="500" height="700"/>
<polygon fill="#3FA9F5" points="500,435 -1,435 -1,346 12,346 12,352 15,352 15,335 25,335 25,340 32,340 32,370 43.132,370 
	46.141,355 56,355 56,364 64.193,347.666 71.885,364 302,364 302,356 309,356 309,362 331,362 331,337 337,337 337,325 351,325 
	351,334 358,334 358,356 370,356 370,332 385,332 385,357 392,357 392,343 396,343 396,358 408.224,358 417.251,343 430,343 
	430,357 443.936,337.25 448.344,356 458,356 458,323 469,323 469,356 479,356 479,326 484,326 484,357 488,357 488,338 500,338 "/>
<rect x="1" y="434" fill="#999999" width="499" height="34"/>
<rect x="2" y="450" fill="#FFFFFF" width="14" height="2"/>
<rect x="26" y="450" fill="#FFFFFF" width="14" height="2"/>
<rect x="51" y="450" fill="#FFFFFF" width="13" height="2"/>
<rect x="75" y="450" fill="#FFFFFF" width="13" height="2"/>
<rect x="99" y="450" fill="#FFFFFF" width="13" height="2"/>
<rect x="123" y="450" fill="#FFFFFF" width="13" height="2"/>
<rect x="147" y="450" fill="#FFFFFF" width="13" height="2"/>
<rect x="171" y="450" fill="#FFFFFF" width="13" height="2"/>
<rect x="195" y="450" fill="#FFFFFF" width="13" height="2"/>
<rect x="219" y="450" fill="#FFFFFF" width="13" height="2"/>
<rect x="243" y="450" fill="#FFFFFF" width="14" height="2"/>
<rect x="267" y="450" fill="#FFFFFF" width="14" height="2"/>
<rect x="291" y="450" fill="#FFFFFF" width="14" height="2"/>
<rect x="316" y="450" fill="#FFFFFF" width="13" height="2"/>
<rect x="340" y="450" fill="#FFFFFF" width="13" height="2"/>
<rect x="364" y="450" fill="#FFFFFF" width="13" height="2"/>
<rect x="388" y="450" fill="#FFFFFF" width="13" height="2"/>
<rect x="412" y="450" fill="#FFFFFF" width="13" height="2"/>
<rect x="436" y="450" fill="#FFFFFF" width="13" height="2"/>
<rect x="460" y="450" fill="#FFFFFF" width="13" height="2"/>
<path fill="#3FA9F5" d="M1.204,434.112"/>
<g>
	<path d="M345,608.659c0,7.368-5.973,13.341-13.341,13.341H101.341C93.973,622,88,616.027,88,608.659V136.341
		C88,128.973,93.973,123,101.341,123h230.318c7.368,0,13.341,5.973,13.341,13.341V608.659z"/>
	<path fill="#FFFFFF" d="M333,566.658c0,7.368-5.973,13.342-13.341,13.342H112.341C104.973,580,99,574.026,99,566.658V170.342
		c0-7.369,5.973-13.342,13.341-13.342h207.318c7.368,0,13.341,5.973,13.341,13.342V566.658z"/>
	<path fill="#7AC143" d="M112.665,156.769c-7.368,0-13.665,5.695-13.665,13.063V184h233.506h0.695l-0.139-14.31
		c0-7.368-6.122-13.27-13.49-13.27"/>
	<circle fill="#FFFFFF" cx="217.626" cy="138.517" r="8.152"/>
	<g>
		
			<rect x="259.131" y="300.462" transform="matrix(0.9845 0.1754 -0.1754 0.9845 59.6965 -45.4524)" opacity="0.54" fill="#C7B299" width="55.588" height="28.906"/>
		<circle fill="#7AC143" cx="295.078" cy="312.691" r="6.299"/>
		<circle fill="#FF0000" cx="149.253" cy="241.355" r="1.297"/>
		<circle fill="#FF0000" cx="154.812" cy="242.467" r="1.297"/>
		<circle fill="#FF0000" cx="161.482" cy="243.579" r="1.297"/>
		<circle fill="#FF0000" cx="168.153" cy="244.69" r="1.298"/>
		<circle fill="#FF0000" cx="173.712" cy="245.802" r="1.297"/>
		<circle fill="#FF0000" cx="180.383" cy="246.914" r="1.298"/>
		<circle fill="#FF0000" cx="185.941" cy="248.025" r="1.298"/>
		<circle fill="#FF0000" cx="192.612" cy="249.137" r="1.297"/>
		<circle fill="#FF0000" cx="198.17" cy="249.137" r="1.297"/>
		<circle fill="#FF0000" cx="204.841" cy="250.249" r="1.297"/>
		<circle fill="#FF0000" cx="204.841" cy="255.808" r="1.297"/>
		<circle fill="#FF0000" cx="203.729" cy="261.367" r="1.297"/>
		<circle fill="#FF0000" cx="257.093" cy="312.507" r="1.297"/>
		<circle fill="#FF0000" cx="255.981" cy="319.178" r="1.297"/>
		<circle fill="#FF0000" cx="200.394" cy="279.154" r="1.297"/>
		<circle fill="#FF0000" cx="198.17" cy="285.825" r="1.297"/>
		<circle fill="#FF0000" cx="197.059" cy="291.384" r="1.297"/>
		<circle fill="#FF0000" cx="195.947" cy="298.055" r="1.298"/>
		<circle fill="#FF0000" cx="194.835" cy="304.725" r="1.297"/>
		<circle fill="#FF0000" cx="193.723" cy="310.283" r="1.298"/>
		<circle fill="#FF0000" cx="192.612" cy="314.73" r="1.297"/>
		<circle fill="#FF0000" cx="199.282" cy="315.842" r="1.298"/>
		<circle fill="#FF0000" cx="204.841" cy="316.955" r="1.297"/>
		<circle fill="#FF0000" cx="211.511" cy="318.066" r="1.297"/>
		<circle fill="#FF0000" cx="218.182" cy="319.178" r="1.297"/>
		<circle fill="#FF0000" cx="223.741" cy="320.289" r="1.297"/>
		<circle fill="#FF0000" cx="230.411" cy="321.401" r="1.297"/>
		<circle fill="#FF0000" cx="235.97" cy="322.513" r="1.297"/>
		<circle fill="#FF0000" cx="242.64" cy="323.625" r="1.298"/>
		<circle fill="#FF0000" cx="248.199" cy="324.736" r="1.298"/>
		<circle fill="#FF0000" cx="254.87" cy="325.848" r="1.297"/>
		<circle fill="#FF0000" cx="261.54" cy="309.172" r="1.297"/>
		<circle fill="#FF0000" cx="267.099" cy="310.283" r="1.297"/>
		<circle fill="#FF0000" cx="273.77" cy="311.396" r="1.298"/>
		<circle fill="#FF0000" cx="280.44" cy="312.507" r="1.297"/>
		<circle fill="#FF0000" cx="285.999" cy="313.619" r="1.297"/>
		<circle fill="#FF0000" cx="202.617" cy="268.037" r="1.297"/>
		<circle fill="#FF0000" cx="201.506" cy="274.708" r="1.298"/>
		
			<rect x="152.404" y="213.746" transform="matrix(0.9845 0.1754 -0.1754 0.9845 42.831 -28.075)" opacity="0.54" fill="#C7B299" width="55.587" height="28.906"/>
		<polygon opacity="0.54" fill="#C7B299" points="160.621,184.818 156.969,205.31 211.695,215.063 216.765,186.606 209.25,185.266 
					"/>
		
			<rect x="144.621" y="247.099" transform="matrix(0.9845 0.1755 -0.1755 0.9845 48.5638 -26.1932)" opacity="0.54" fill="#C7B299" width="55.588" height="28.905"/>
		
			<rect x="137.951" y="279.339" transform="matrix(0.9845 0.1754 -0.1754 0.9845 54.1147 -24.5219)" opacity="0.54" fill="#C7B299" width="55.587" height="28.906"/>
		
			<rect x="131.28" y="312.692" transform="matrix(0.9845 0.1755 -0.1755 0.9845 59.8714 -22.8368)" opacity="0.54" fill="#C7B299" width="55.588" height="28.905"/>
		<polygon opacity="0.54" fill="#C7B299" points="97.261,227.284 147.213,236.186 152.283,207.729 97.559,197.977 		"/>
		<polygon opacity="0.54" fill="#C7B299" points="100.735,185.347 99.158,194.192 153.884,203.945 157.214,185.252 		"/>
		<path opacity="0.54" fill="#C7B299" d="M104.229,165.736"/>
		<polygon opacity="0.54" fill="#C7B299" points="96.742,261.93 139.431,269.539 144.501,241.082 96.827,232.585 		"/>
		<polygon opacity="0.54" fill="#C7B299" points="96.247,295.271 132.76,301.779 137.831,273.322 96.768,266.004 		"/>
		<polygon opacity="0.54" fill="#C7B299" points="96.817,329.916 126.09,335.132 131.16,306.675 97.115,300.608 		"/>
		
			<rect x="212.438" y="223.752" transform="matrix(0.9845 0.1754 -0.1754 0.9845 45.5176 -38.4525)" opacity="0.54" fill="#C7B299" width="55.587" height="28.905"/>
		
			<rect x="219.108" y="191.511" transform="matrix(0.9845 0.1755 -0.1755 0.9845 39.9664 -40.1243)" opacity="0.54" fill="#C7B299" width="55.588" height="28.905"/>
		
			<rect x="204.656" y="257.104" transform="matrix(0.9845 0.1754 -0.1754 0.9845 51.2484 -36.5698)" opacity="0.54" fill="#C7B299" width="55.587" height="28.905"/>
		
			<rect x="197.985" y="289.345" transform="matrix(0.9845 0.1754 -0.1754 0.9845 56.8018 -34.8996)" opacity="0.54" fill="#C7B299" width="55.587" height="28.905"/>
		<polygon opacity="0.54" fill="#C7B299" points="194.014,347.357 189.21,346.502 194.282,318.045 249.005,327.798 245.362,348.243 
					"/>
		
			<rect x="273.584" y="234.869" transform="matrix(0.9845 0.1755 -0.1755 0.9845 48.4187 -49.0096)" opacity="0.54" fill="#C7B299" width="55.588" height="28.906"/>
		<polygon opacity="0.54" fill="#C7B299" points="331.587,235.956 278.15,226.433 283.221,197.977 331.567,206.592 		"/>
		
			<rect x="265.802" y="268.222" transform="matrix(0.9845 0.1755 -0.1755 0.9845 54.1496 -47.1268)" opacity="0.54" fill="#C7B299" width="55.588" height="28.905"/>
		<polygon opacity="0.54" fill="#C7B299" points="252.019,348.29 255.428,329.163 310.151,338.916 308.529,348.021 		"/>
		<polygon opacity="0.54" fill="#C7B299" points="331.421,200.076 285.932,191.969 287.23,184.683 331.766,184.841 		"/>
		<polygon opacity="0.54" fill="#C7B299" points="247.266,185.056 278.399,190.604 279.396,185.012 		"/>
		<polygon opacity="0.54" fill="#C7B299" points="331.348,336.621 318.173,334.273 323.244,305.816 331.101,307.216 		"/>
		<polygon opacity="0.54" fill="#C7B299" points="331.398,303.201 324.844,302.032 329.915,273.575 331.97,273.941 		"/>
		<polygon opacity="0.54" fill="#C7B299" points="313.832,348.312 315.462,339.168 331.959,342.109 331.395,347.712 		"/>
		<polygon opacity="0.54" fill="#C7B299" points="145.396,347.921 145.613,346.697 97.133,338.058 97.133,338.058 97.649,348.546 		
			"/>
		<circle fill="#F7931E" cx="148.697" cy="231.164" r="7.041"/>
		<path fill="#FF1D25" d="M293.596,306.763l-11.118-21.865c0,0,19.271-10.006,31.87,10.006L293.596,306.763z"/>
		<path fill="#FF1D25" d="M276.179,274.892l-5.931-10.375c0,0,36.688-23.348,65.223,19.27l-10.005,4.818
			C325.466,288.604,306.936,258.586,276.179,274.892z"/>
		<path fill="#FF1D25" d="M264.689,253.398c0,0,49.287-27.423,81.158,24.088l10.376-5.93c0,0-32.24-58.553-97.834-28.906
			L264.689,253.398z"/>
		<path fill="#FF1D25" d="M252.46,231.905c0,0,69.3-37.799,113.399,34.464l10.375-5.93c0,0-38.539-78.564-128.961-38.911
			L252.46,231.905z"/>
	</g>
	<text transform="matrix(1 0 0 1 115.8989 393.0254)" font-family="'Calibri-Bold'" font-size="26.1863">155</text>
	<path fill="#FF1D25" d="M264.777,385.062l-3.313-0.155c0,0,0.114-2.936,3.31-3.076L264.777,385.062z"/>
	<path fill="#FF1D25" d="M259.867,384.978l-1.617,0.002c0,0-0.287-5.875,6.631-6.376l-0.104,1.498
		C264.776,380.102,260.01,380.271,259.867,384.978z"/>
	<path fill="#FF1D25" d="M256.572,384.888c0,0,0.077-7.627,8.263-7.924l-0.002-1.615c0,0-9.038-0.133-9.945,9.561L256.572,384.888z"
		/>
	<path fill="#FF1D25" d="M253.229,384.886c0,0,0.196-10.674,11.641-11.018l-0.004-1.616c0,0-11.811-0.73-13.204,12.549
		L253.229,384.886z"/>
	<text transform="matrix(1 0 0 1 266.9131 391.5146)" font-family="'Calibri-Bold'" font-size="23.2292">12:30</text>
	<rect x="166" y="382" width="64" height="7"/>
	<rect x="110" y="396" fill="#7AC143" width="50" height="4"/>
	<rect x="109" y="353" fill="#FF1D25" width="59" height="9"/>
	<rect x="109" y="367" fill="#FF1D25" width="214" height="1"/>
	<text transform="matrix(1 0 0 1 115.8989 455.2842)" font-family="'Calibri-Bold'" font-size="26.1863">155</text>
	<path fill="#FF1D25" d="M264.777,447.32l-3.313-0.155c0,0,0.114-2.935,3.31-3.076L264.777,447.32z"/>
	<path fill="#FF1D25" d="M259.867,447h-1.617c0,0-0.287-5.756,6.631-6.256l-0.104,1.439C264.776,442.184,260.01,443,259.867,447z"/>
	<path fill="#FF1D25" d="M256.572,447.146c0,0,0.077-7.628,8.263-7.924l-0.002-1.615c0,0-9.038-0.133-9.945,9.56L256.572,447.146z"
		/>
	<path fill="#FF1D25" d="M253.229,447.144c0,0,0.196-10.675,11.641-11.017l-0.004-1.617c0,0-11.811-0.73-13.204,12.549
		L253.229,447.144z"/>
	<text transform="matrix(1 0 0 1 266.9131 453.7725)" font-family="'Calibri-Bold'" font-size="23.2292">12:45</text>
	<rect x="166" y="444" width="64" height="7"/>
	<rect x="110" y="459" fill="#7AC143" width="50" height="2"/>
	<rect x="109" y="416" fill="#FF1D25" width="59" height="8"/>
	<rect x="109" y="429" fill="#FF1D25" width="214" height="2"/>
	<text transform="matrix(1 0 0 1 115.8989 490.8584)" font-family="'Calibri-Bold'" font-size="26.1863">150</text>
	<path fill="#FF1D25" d="M264.777,482.896l-3.313-0.156c0,0,0.114-2.934,3.31-3.075L264.777,482.896z"/>
	<path fill="#FF1D25" d="M259.867,482.811l-1.617,0.003c0,0-0.287-5.875,6.631-6.375l-0.104,1.498
		C264.776,477.937,260.01,478.104,259.867,482.811z"/>
	<path fill="#FF1D25" d="M256.572,482.722c0,0,0.077-7.628,8.263-7.924l-0.002-1.616c0,0-9.038-0.132-9.945,9.561L256.572,482.722z"
		/>
	<path fill="#FF1D25" d="M253.229,482.72c0,0,0.196-10.675,11.641-11.018l-0.004-1.617c0,0-11.811-0.729-13.204,12.549
		L253.229,482.72z"/>
	<text transform="matrix(1 0 0 1 266.9131 489.3477)" font-family="'Calibri-Bold'" font-size="23.2292">12:50</text>
	<rect x="166" y="480" width="64" height="7"/>
	<rect x="110" y="494" fill="#7AC143" width="50" height="3"/>
	<text transform="matrix(1 0 0 1 115.8989 528.6592)" font-family="'Calibri-Bold'" font-size="26.1863">153</text>
	<path fill="#FF1D25" d="M264.777,520.696l-3.313-0.156c0,0,0.114-2.935,3.31-3.076L264.777,520.696z"/>
	<path fill="#FF1D25" d="M259.867,521h-1.617c0,0-0.287-6.068,6.631-6.568l-0.104,1.595C264.776,516.026,260.01,516,259.867,521z"/>
	<path fill="#FF1D25" d="M256.572,520.521c0,0,0.077-7.629,8.263-7.924l-0.002-1.615c0,0-9.038-0.133-9.945,9.56L256.572,520.521z"
		/>
	<path fill="#FF1D25" d="M253.229,520.519c0,0,0.196-10.674,11.641-11.017l-0.004-1.617c0,0-11.811-0.73-13.204,12.549
		L253.229,520.519z"/>
	<text transform="matrix(1 0 0 1 266.9131 527.1475)" font-family="'Calibri-Bold'" font-size="23.2292">01:20</text>
	<rect x="166" y="518" width="64" height="7"/>
	<rect x="110" y="532" fill="#7AC143" width="50" height="3"/>
	<text transform="matrix(1 0 0 1 115.8989 566.458)" font-family="'Calibri-Bold'" font-size="26.1863">155</text>
	<path fill="#FF1D25" d="M264.777,558.495l-3.313-0.155c0,0,0.114-2.936,3.31-3.076L264.777,558.495z"/>
	<path fill="#FF1D25" d="M259.867,558.41l-1.617,0.002c0,0-0.287-5.875,6.631-6.375l-0.104,1.498
		C264.776,553.535,260.01,553.703,259.867,558.41z"/>
	<path fill="#FF1D25" d="M256.572,558.32c0,0,0.077-7.627,8.263-7.924l-0.002-1.615c0,0-9.038-0.133-9.945,9.561L256.572,558.32z"/>
	<path fill="#FF1D25" d="M253.229,558.318c0,0,0.196-10.674,11.641-11.017l-0.004-1.617c0,0-11.811-0.73-13.204,12.549
		L253.229,558.318z"/>
	<text transform="matrix(1 0 0 1 266.9131 564.9473)" font-family="'Calibri-Bold'" font-size="23.2292">01:35</text>
	<rect x="166" y="555" width="64" height="8"/>
	<rect x="110" y="569" fill="#7AC143" width="50" height="4"/>
</g>
<g>
	<path fill="#7AC143" d="M0,495h133.679h155.357c0,0,13.247-0.006,13.247,19.264l1.807,2.104l3.914,98.128
		c0,0-2.409,7.505-7.828,7.505h-68.947c0,0,2.409-20.323-20.473-24.237c0,0-24.99-2.763-27.398,24.237H24.086
		c0,0,0-21.435-24.086-25.95V495z"/>
	<path fill="#4D4D4D" d="M0,594.555c15,0,24.382,10.917,24.382,24.383c0,13.465-9.382,24.382-24.382,24.382V594.555z"/>
	<circle fill="#4D4D4D" cx="207.347" cy="621.438" r="24.382"/>
	<rect x="4" y="512" fill="#FFFFFF" width="54" height="66"/>
	<rect x="67" y="512" fill="#FFFFFF" width="106" height="66"/>
	<rect x="183" y="512" fill="#FFFFFF" width="49" height="66"/>
	<path fill="#FFFFFF" d="M296,597.339c0,7.437-6.209,13.661-14.19,13.661h-28.903c-7.981,0-14.906-6.225-14.906-13.661v-71.824
		c0-7.435,6.925-13.515,14.906-13.515h28.903c7.981,0,14.19,6.08,14.19,13.515V597.339z"/>
	<path fill="#71B238" d="M271,493c0,2.209-1.791,4-4,4H138c-2.209,0-4-1.791-4-4l0,0c0-2.209,1.791-4,4-4h129
		C269.209,489,271,490.791,271,493L271,493z"/>
	<polygon fill="#999999" points="303.648,516.866 300,516.465 300,578.888 306.342,579.29 	"/>
	<path fill="#F7931E" d="M307.101,591.383l-3.613,0.15c0,0-6.824,11.742,1.204,17.764l3.012,0.352L307.101,591.383z"/>
	<path fill="#999999" d="M238,581v25.04c0,2.632,6.925,4.96,14.906,4.96h28.903c7.981,0,14.19-2.328,14.19-4.96V581H238z"/>
	<rect x="265" y="512" fill="#7AC143" width="6" height="107"/>
	<rect x="67" y="512" fill="#999999" width="106" height="11"/>
</g>
<rect x="480" y="450" fill="#FFFFFF" width="13" height="2"/>
<text transform="matrix(1 0 0 1 136.5918 52.9985)"><tspan x="0" y="0" font-family="'Candara-Bold'" font-size="24">Live next arrival times</tspan><tspan x="1.465" y="28.8" font-family="'Candara-Bold'" font-size="24">to minimise your wait</tspan></text>
<rect x="-1" y="24" opacity="0.27" fill="#7AC143" width="503" height="72"/>
<g>
	<ellipse fill="#999999" cx="408.263" cy="639.319" rx="22.481" ry="4.014"/>
	<rect x="383" y="461" fill="#2D69E0" width="52" height="52"/>
	<path fill="#FFFFFF" d="M402.241,500h14.452c0,0-1.465,5.83,4.443,5.379c0,0,3.863-0.341,2.863-6.514V484h2v-6h-2v-6.081
		c0,0-0.231-1.919-2.038-1.919h-23.333c0,0-4.629-0.414-4.629,1.844V478h-3v6h2v14.414c0,0-0.348,7.115,4.621,7.115
		C397.621,505.529,401.64,506,402.241,500z"/>
	<circle fill="#2D69E0" cx="397.575" cy="494.425" r="2.033"/>
	<circle fill="#2D69E0" cx="419.252" cy="494.425" r="2.033"/>
	<path fill="#2D69E0" d="M396,486.371V473h26v13.371C422,486.371,413,492.693,396,486.371z"/>
	<rect x="405" y="513" fill="#B3B3B3" width="7" height="128"/>
</g>
<g>
	<circle fill="#7AC143" cx="200" cy="679.5" r="7.5"/>
	<circle fill="none" stroke="#7AC143" stroke-miterlimit="10" cx="250" cy="679.5" r="7.5"/>
	<circle fill="none" stroke="#7AC143" stroke-miterlimit="10" cx="300" cy="679.5" r="7.5"/>
</g>
</svg>
