<?xml version="1.0" encoding="utf-8"?>
<!-- Generator: Adobe Illustrator 15.1.0, SVG Export Plug-In . SVG Version: 6.00 Build 0)  -->
<!DOCTYPE svg PUBLIC "-//W3C//DTD SVG 1.1//EN" "http://www.w3.org/Graphics/SVG/1.1/DTD/svg11.dtd">
<svg version="1.1" id="Layer_1" xmlns="http://www.w3.org/2000/svg" xmlns:xlink="http://www.w3.org/1999/xlink" x="0px" y="0px"
	 width="500px" height="350px" viewBox="0 0 500 350" enable-background="new 0 0 500 350" xml:space="preserve">
<g>
	<g>
		<path fill="#FFFFFF" d="M455.484,328.841H47.124c-25.724,0-45.016-20.898-45.016-45.016V65.175
			c0-25.724,20.9-45.016,45.016-45.016h408.36c25.723,0,45.016,20.9,45.016,45.016v218.65
			C500.5,309.548,481.207,328.841,455.484,328.841z"/>
		<g>
			<g>
				<path fill="#7BC144" d="M312.67,69.074v-4.817h12.525l-8.672,45.285c0,0-6.744,13.49-23.123,11.562c0,0-17.344,0-17.344-15.417
					h10.599c0,0,2.891,5.781,8.671,5.781c0,0,8.673,0,11.562-12.526c0,0-3.854,6.745-18.307,2.891c0,0-19.271-8.673-6.745-30.833
					C280.874,72.929,299.182,51.731,312.67,69.074z"/>
				<path fill="#FFFFFF" d="M303.035,71.964c0,0-9.635-3.855-13.489,12.525c0,0,0,17.344,13.489,9.636
					C303.035,94.126,316.525,77.746,303.035,71.964z"/>
			</g>
			<g>
				<path fill="#7BC144" d="M343.504,76.782c0,0-26.979,12.526-10.599,33.724c0,0-2.892-13.489,10.599-17.343
					C343.504,92.199,361.812,76.782,343.504,76.782z"/>
				<path fill="#7BC144" d="M345.431,71.964c0,0,12.525,2.89,8.672,14.453c0,0-0.964,12.526,13.489,3.855
					C367.592,91.236,377.228,65.22,345.431,71.964z"/>
				<path fill="#7BC144" d="M369.519,94.126c0,0-13.489,18.307-23.124,20.234c0,0-10.6,1.929-9.636-9.635
					c0,0,5.781-12.525,15.417-3.854C351.212,99.907,358.92,102.799,369.519,94.126z"/>
			</g>
			<g opacity="0.5">
				<path fill="#7BC144" d="M390.717,76.782c0,0-26.979,12.526-10.6,33.724c0,0-2.89-13.489,10.6-17.343
					C390.717,92.199,409.988,76.782,390.717,76.782z"/>
				<path fill="#7BC144" d="M393.606,71.964c0,0,12.525,2.89,8.673,14.453c0,0-0.963,12.526,13.489,3.855
					C415.769,91.236,425.403,65.22,393.606,71.964z"/>
				<path fill="#7BC144" d="M416.732,94.126c0,0-13.489,18.307-23.126,20.234c0,0-10.6,1.929-9.635-9.635
					c0,0,5.781-12.525,15.416-3.854C399.388,99.907,407.097,102.799,416.732,94.126z"/>
			</g>
			<g opacity="0.3">
				<path fill="#7BC144" d="M438.894,76.782c0,0-26.979,12.526-10.6,33.724c0,0-2.891-13.489,10.6-17.343
					C438.894,92.199,458.164,76.782,438.894,76.782z"/>
				<path fill="#7BC144" d="M441.784,71.964c0,0,12.526,2.89,8.671,14.453c0,0-0.962,12.526,13.49,3.855
					C463.945,91.236,472.617,65.22,441.784,71.964z"/>
				<path fill="#7BC144" d="M464.909,94.126c0,0-13.49,18.307-23.125,20.234c0,0-10.6,1.929-9.636-9.635
					c0,0,5.781-12.525,15.417-3.854C447.564,99.907,454.311,102.799,464.909,94.126z"/>
			</g>
		</g>
	</g>
	<line fill="none" stroke="#FFFFFF" stroke-width="0.25" stroke-miterlimit="10" x1="0.5" y1="158.423" x2="498.893" y2="158.423"/>
</g>
<rect y="219.5" fill="#7BC144" width="500" height="28"/>
<line fill="none" stroke="#FFFFFF" stroke-width="0.5" stroke-miterlimit="10" x1="104.5" y1="173.5" x2="1" y2="277"/>
<line fill="none" stroke="#FFFFFF" stroke-width="0.5" stroke-miterlimit="10" x1="124.5" y1="173.5" x2="21" y2="277"/>
<line fill="none" stroke="#FFFFFF" stroke-width="0.5" stroke-miterlimit="10" x1="174.5" y1="173.5" x2="71" y2="277"/>
<line fill="none" stroke="#FFFFFF" stroke-width="0.5" stroke-miterlimit="10" x1="194.5" y1="173.5" x2="91" y2="277"/>
<line fill="none" stroke="#FFFFFF" stroke-width="0.5" stroke-miterlimit="10" x1="244.5" y1="173.5" x2="141" y2="277"/>
<line fill="none" stroke="#FFFFFF" stroke-width="0.75" stroke-miterlimit="10" x1="264.5" y1="173.5" x2="161" y2="277"/>
<line fill="none" stroke="#FFFFFF" stroke-width="0.5" stroke-miterlimit="10" x1="249.5" y1="173.5" x2="146" y2="277"/>
<line fill="none" stroke="#FFFFFF" stroke-width="0.5" stroke-miterlimit="10" x1="130.5" y1="173.5" x2="27" y2="277"/>
<line fill="none" stroke="#FFFFFF" stroke-width="0.5" stroke-miterlimit="10" x1="454.5" y1="173.5" x2="351" y2="277"/>
<line fill="none" stroke="#FFFFFF" stroke-width="0.5" stroke-miterlimit="10" x1="464.5" y1="173.5" x2="361" y2="277"/>
<line fill="none" stroke="#FFFFFF" stroke-miterlimit="10" x1="414.5" y1="173.5" x2="311" y2="277"/>
</svg>
