<?xml version="1.0" encoding="utf-8"?>
<!-- Generator: Adobe Illustrator 15.1.0, SVG Export Plug-In . SVG Version: 6.00 Build 0)  -->
<!DOCTYPE svg PUBLIC "-//W3C//DTD SVG 1.1//EN" "http://www.w3.org/Graphics/SVG/1.1/DTD/svg11.dtd">
<svg version="1.1" id="Layer_1" xmlns="http://www.w3.org/2000/svg" xmlns:xlink="http://www.w3.org/1999/xlink" x="0px" y="0px"
	 width="300px" height="200px" viewBox="0 0 300 200" enable-background="new 0 0 300 200" xml:space="preserve">
<text transform="matrix(1 0 0 1 57.1519 180.333)" fill="#FFFFFF" font-family="'MyriadPro-Regular'" font-size="21">FAVOURITE STOP LIST</text>
<rect x="5" y="147" fill="none" stroke="#FFFFFF" stroke-width="2" stroke-miterlimit="10" width="289" height="9"/>
<circle opacity="0.4" fill="#FFFFFF" cx="250" cy="38.5" r="24"/>
<rect x="248" y="63" fill="#FFFFFF" width="3" height="77"/>
<rect x="231" y="138" fill="#FFFFFF" width="35" height="9"/>
<line fill="none" stroke="#FFFFFF" stroke-width="0.75" stroke-miterlimit="10" x1="58.75" y1="147.25" x2="49.5" y2="156.5"/>
<line fill="#FFFFFF" stroke="#FFFFFF" stroke-width="0.25" stroke-miterlimit="10" x1="62.75" y1="146.75" x2="54" y2="155.5"/>
<line fill="#FFFFFF" stroke="#FFFFFF" stroke-width="0.75" stroke-miterlimit="10" x1="112" y1="156.25" x2="122.25" y2="146"/>
<line fill="#FFFFFF" stroke="#FFFFFF" stroke-width="0.5" stroke-miterlimit="10" x1="132" y1="156.75" x2="142.75" y2="146"/>
<line fill="#FFFFFF" stroke="#FFFFFF" stroke-width="0.5" stroke-miterlimit="10" x1="160.25" y1="155.5" x2="168.875" y2="146.875"/>
<line fill="#FFFFFF" stroke="#FFFFFF" stroke-width="0.25" stroke-miterlimit="10" x1="231.75" y1="156" x2="240.75" y2="147"/>
<line fill="#FFFFFF" stroke="#FFFFFF" stroke-miterlimit="10" x1="235.75" y1="155.75" x2="245" y2="146.5"/>
<line fill="#FFFFFF" stroke="#FFFFFF" stroke-width="0.25" stroke-miterlimit="10" x1="268.5" y1="156.25" x2="277.625" y2="147.125"/>
<g opacity="0.4">
	<path fill="#FFFFFF" d="M153,83h18l10.667-13.917c0,0,2.499-2.625,4.333-0.125c0,0,1.333,1.604-0.5,3.604l-13.333,18.636
		l-0.333,51.151c0,0-1.168,3.325-4.001,3.325c0,0-3.833-0.675-3.833-2.008V114c0,0-1-1.999-3-0.166V143c0,0-0.583,2.5-3.916,2.5
		c0,0-3.084-0.666-4.084-2.333V93c0,0,0-1.5-2,0v18c0,0-1.5,1.834-3,1.834c0,0-3-0.667-3-1.667V89C145,89,147.333,83,153,83z"/>
	<circle fill="#FFFFFF" cx="162.833" cy="73.667" r="6.167"/>
</g>
<g opacity="0.5">
	<path fill="#FFFFFF" d="M120,83h18l10.667-13.917c0,0,2.499-2.625,4.333-0.125c0,0,1.333,1.604-0.5,3.604l-13.333,18.636
		l-0.333,51.151c0,0-1.168,3.325-4.001,3.325c0,0-3.833-0.675-3.833-2.008V114c0,0-1-1.999-3-0.166V143c0,0-0.583,2.5-3.916,2.5
		c0,0-3.084-0.666-4.084-2.333V93c0,0,0-1.5-2,0v18c0,0-1.5,1.834-3,1.834c0,0-3-0.667-3-1.667V89C112,89,114.333,83,120,83z"/>
	<circle fill="#FFFFFF" cx="129.833" cy="73.667" r="6.167"/>
</g>
<path fill="none" stroke="#FFFFFF" stroke-miterlimit="10" d="M254.5,15.25"/>
<line fill="none" stroke="#FFFFFF" stroke-width="0.5" stroke-miterlimit="10" x1="258" y1="15.75" x2="227.5" y2="46.25"/>
<line fill="none" stroke="#FFFFFF" stroke-width="0.75" stroke-miterlimit="10" x1="262.5" y1="18.25" x2="229.625" y2="51.125"/>
<line fill="none" stroke="#FFFFFF" stroke-width="0.5" stroke-miterlimit="10" x1="272.5" y1="31.5" x2="242.625" y2="61.375"/>
<g opacity="0.7">
	<path fill="#FFFFFF" d="M87,83h18l10.667-13.917c0,0,2.499-2.625,4.333-0.125c0,0,1.333,1.604-0.5,3.604l-13.333,18.636
		l-0.333,51.151c0,0-1.168,3.325-4.001,3.325c0,0-3.833-0.675-3.833-2.008V114c0,0-1-1.999-3-0.166V143c0,0-0.583,2.5-3.916,2.5
		c0,0-3.084-0.666-4.084-2.333V93c0,0,0-1.5-2,0v18c0,0-1.5,1.834-3,1.834c0,0-3-0.667-3-1.667V89C79,89,81.333,83,87,83z"/>
	<circle fill="#FFFFFF" cx="96.833" cy="73.667" r="6.167"/>
</g>
</svg>
