<?xml version="1.0" encoding="utf-8"?>
<!-- Generator: Adobe Illustrator 15.1.0, SVG Export Plug-In . SVG Version: 6.00 Build 0)  -->
<!DOCTYPE svg PUBLIC "-//W3C//DTD SVG 1.1//EN" "http://www.w3.org/Graphics/SVG/1.1/DTD/svg11.dtd">
<svg version="1.1" id="Layer_2" xmlns="http://www.w3.org/2000/svg" xmlns:xlink="http://www.w3.org/1999/xlink" x="0px" y="0px"
	 width="450px" height="200px" viewBox="0 0 450 200" enable-background="new 0 0 450 200" xml:space="preserve">
<g>
	<path fill="none" stroke="#FFFFFF" stroke-miterlimit="10" d="M348.5,132.034V39.277c0-3.796-5.224-5.777-5.224-5.777h-30.386
		c-3.431,0-5.391,5.447-5.391,5.447v93.583l5.391,2.971h31.264l4.346-1.444V132.034z"/>
	<path fill="none" stroke="#FFFFFF" stroke-width="2" stroke-miterlimit="10" d="M351,133.625l15.261-0.125
		c4.311-23,26.818-23.471,26.818-23.471C411.758,110.029,419,133,419,133h12.678c2.873,0,6.322-6,6.322-6V82.609
		c0-5.459-7-7.609-7-7.609h-65V35.77C366,23.126,352,19,352,19H24C14.311,18,9,31,9,31v88.221C9,126.81,23,133,23,133h86.839
		c6.034-24,26.724-22.503,26.724-22.503C157.54,110.497,162,133,162,133h143V38c0,0,2.375-7,8.5-7H345c0,0,7,2,6,7.625V133.625z"/>
	<path opacity="0.8" fill="#FFFFFF" d="M33,38h42c0,0,4,1.58,4,3.985V68c0,0-1.632,4-2.782,4H33c0,0-4-1.747-4-4.046V42
		C29,42,30.874,38,33,38z"/>
	<path opacity="0.7" fill="#FFFFFF" d="M89,38h42c0,0,4,1.58,4,3.985V68c0,0-1.632,4-2.782,4H89c0,0-4-1.747-4-4.046V42
		C85,42,86.874,38,89,38z"/>
	<path opacity="0.6" fill="#FFFFFF" d="M144,38h42c0,0,4,1.58,4,3.985V68c0,0-1.632,4-2.782,4H144c0,0-4-1.747-4-4.046V42
		C140,42,141.874,38,144,38z"/>
	<path opacity="0.5" fill="#FFFFFF" d="M200,38h42c0,0,4,1.58,4,3.985V68c0,0-1.633,4-2.781,4H200c0,0-4-1.747-4-4.046V42
		C196,42,197.874,38,200,38z"/>
	<path opacity="0.4" fill="#FFFFFF" d="M256,38h42c0,0,4,1.58,4,3.985V68c0,0-1.633,4-2.781,4H256c0,0-4-1.747-4-4.046V42
		C252,42,253.873,38,256,38z"/>
	<rect x="24" y="90" fill="#FFFFFF" width="275" height="3"/>
	<rect x="24" y="97" fill="#FFFFFF" width="275" height="2"/>
	<circle fill="none" stroke="#FFFFFF" stroke-width="2" stroke-miterlimit="10" cx="135.276" cy="137.069" r="21.552"/>
	<circle fill="none" stroke="#FFFFFF" stroke-width="2" stroke-miterlimit="10" cx="393.276" cy="137.069" r="21.552"/>
	<path fill="none" stroke="#FFFFFF" stroke-width="2" stroke-miterlimit="10" d="M365.78,36.586l8.999-0.113
		c0,0,2.956,0.963,3.593,5.955l0.982-0.012l0.327,25.998l-1.5,0.019c0,0-0.712,3.009-2.962,3.038l-8.999,0.113"/>
	<path fill="none" stroke="#FFFFFF" stroke-width="2" stroke-miterlimit="10" d="M379.188,42.562c0,0-4.188-1.062-4.188,2.938V68
		c0,0,0.516,0.725,2.584,0.542"/>
	<path opacity="0.3" fill="#FFFFFF" d="M313.25,43.625c0,0,4.75-9.375,9.75-0.125V68c0,0-4.125,8-10.125,0.25L313.25,43.625z"/>
	<path opacity="0.3" fill="#FFFFFF" d="M332.25,43.625c0,0,4.75-9.375,9.75-0.125V68c0,0-4.125,8-10.125,0.25L332.25,43.625z"/>
	<path opacity="0.3" fill="#FFFFFF" d="M313.25,86.625c0,0,4.75-9.375,9.75-0.125V111c0,0-4.125,8-10.125,0.25L313.25,86.625z"/>
	<path opacity="0.3" fill="#FFFFFF" d="M332.25,86.625c0,0,4.75-9.375,9.75-0.125V111c0,0-4.125,8-10.125,0.25L332.25,86.625z"/>
	<line fill="none" stroke="#FFFFFF" stroke-width="0.5" stroke-miterlimit="10" x1="142.333" y1="117" x2="114.958" y2="144.375"/>
	
		<line fill="none" stroke="#FFFFFF" stroke-width="0.5" stroke-miterlimit="10" x1="144.167" y1="117.584" x2="115.792" y2="145.959"/>
	<line fill="#00FF00" stroke="#FFFFFF" stroke-miterlimit="10" x1="122" y1="154.084" x2="152.292" y2="123.792"/>
	<path fill="#00FF00" stroke="#FFFFFF" stroke-miterlimit="10" d="M156.167,141.334"/>
	
		<line fill="#00FF00" stroke="#FFFFFF" stroke-width="0.25" stroke-miterlimit="10" x1="138.833" y1="158.334" x2="156.5" y2="140.667"/>
	<line fill="none" stroke="#FFFFFF" stroke-width="0.5" stroke-miterlimit="10" x1="400.334" y1="117" x2="372.959" y2="144.375"/>
	
		<line fill="none" stroke="#FFFFFF" stroke-width="0.5" stroke-miterlimit="10" x1="402.167" y1="117.584" x2="373.792" y2="145.959"/>
	<line fill="#00FF00" stroke="#FFFFFF" stroke-miterlimit="10" x1="380" y1="154.084" x2="410.292" y2="123.792"/>
	
		<line fill="#00FF00" stroke="#FFFFFF" stroke-width="0.25" stroke-miterlimit="10" x1="396.834" y1="158.334" x2="414.5" y2="140.667"/>
</g>
<text transform="matrix(1 0 0 1 136.4233 192.333)" fill="#FFFFFF" font-family="'MyriadPro-Regular'" font-size="21">FAVOURITE BUS LIST</text>
</svg>
