<?xml version="1.0" encoding="utf-8"?>
<!-- Generator: Adobe Illustrator 20.1.0, SVG Export Plug-In . SVG Version: 6.00 Build 0)  -->
<svg version="1.1" id="Layer_1" xmlns="http://www.w3.org/2000/svg" xmlns:xlink="http://www.w3.org/1999/xlink" x="0px" y="0px"
	 viewBox="0 0 31.1 19.2" style="enable-background:new 0 0 31.1 19.2;" xml:space="preserve">
<style type="text/css">
	.st0{fill:#14477B;}
	.st1{fill:#030303;}
	.st2{fill:#FFFFFF;}
	.st3{opacity:0.7;}
	.st4{opacity:0.4;}
	.st5{fill:none;stroke:#FFFFFF;stroke-width:0.25;stroke-miterlimit:10;}
	.st6{opacity:0.8;fill:#FFFFFF;enable-background:new    ;}
	.st7{opacity:0.7;fill:#FFFFFF;enable-background:new    ;}
	.st8{opacity:0.6;fill:#FFFFFF;enable-background:new    ;}
	.st9{opacity:0.5;fill:#FFFFFF;enable-background:new    ;}
	.st10{opacity:0.4;fill:#FFFFFF;enable-background:new    ;}
	.st11{opacity:0.3;fill:#FFFFFF;enable-background:new    ;}
	.st12{opacity:0.2;fill:#FFFFFF;enable-background:new    ;}
</style>
<g>
	<g>
		<path class="st0" d="M28.3,19.2H2.9c-1.6,0-2.8-1.3-2.8-2.8V2.8C0.1,1.2,1.4,0,2.9,0h25.4c1.6,0,2.8,1.3,2.8,2.8v13.6
			C31.1,18,29.9,19.2,28.3,19.2z"/>
		<rect x="0.1" y="4.1" class="st1" width="31" height="4.5"/>
		<g>
			<g>
				<path class="st2" d="M13.6,13v-0.5h1.3L14,17.2c0,0-0.7,1.4-2.4,1.2c0,0-1.8,0-1.8-1.6h1.1c0,0,0.3,0.6,0.9,0.6
					c0,0,0.9,0,1.2-1.3c0,0-0.4,0.7-1.9,0.3c0,0-2-0.9-0.7-3.2C10.3,13.4,12.2,11.2,13.6,13z"/>
				<path class="st0" d="M12.6,13.3c0,0-1-0.4-1.4,1.3c0,0,0,1.8,1.4,1C12.6,15.6,14,13.9,12.6,13.3z"/>
			</g>
			<g>
				<path class="st2" d="M16.8,13.8c0,0-2.8,1.3-1.1,3.5c0,0-0.3-1.4,1.1-1.8C16.8,15.4,18.7,13.8,16.8,13.8z"/>
				<path class="st2" d="M17,13.3c0,0,1.3,0.3,0.9,1.5c0,0-0.1,1.3,1.4,0.4C19.3,15.3,20.3,12.6,17,13.3z"/>
				<path class="st2" d="M19.5,15.6c0,0-1.4,1.9-2.4,2.1c0,0-1.1,0.2-1-1c0,0,0.6-1.3,1.6-0.4C17.6,16.2,18.4,16.5,19.5,15.6z"/>
			</g>
			<g class="st3">
				<path class="st2" d="M21.7,13.8c0,0-2.8,1.3-1.1,3.5c0,0-0.3-1.4,1.1-1.8C21.7,15.4,23.7,13.8,21.7,13.8z"/>
				<path class="st2" d="M22,13.3c0,0,1.3,0.3,0.9,1.5c0,0-0.1,1.3,1.4,0.4C24.3,15.3,25.3,12.6,22,13.3z"/>
				<path class="st2" d="M24.4,15.6c0,0-1.4,1.9-2.4,2.1c0,0-1.1,0.2-1-1c0,0,0.6-1.3,1.6-0.4C22.6,16.2,23.4,16.5,24.4,15.6z"/>
			</g>
			<g class="st4">
				<path class="st2" d="M26.7,13.8c0,0-2.8,1.3-1.1,3.5c0,0-0.3-1.4,1.1-1.8C26.7,15.4,28.7,13.8,26.7,13.8z"/>
				<path class="st2" d="M27,13.3c0,0,1.3,0.3,0.9,1.5c0,0-0.1,1.3,1.4,0.4C29.3,15.3,30.2,12.6,27,13.3z"/>
				<path class="st2" d="M29.4,15.6c0,0-1.4,1.9-2.4,2.1c0,0-1.1,0.2-1-1c0,0,0.6-1.3,1.6-0.4C27.6,16.2,28.3,16.5,29.4,15.6z"/>
			</g>
		</g>
	</g>
	<polyline class="st5" points="4.1,4.1 6,6 0,11.9 	"/>
	<line class="st5" x1="0" y1="4.1" x2="31" y2="4.1"/>
	<line class="st5" x1="0" y1="8.6" x2="31" y2="8.6"/>
	<polyline class="st5" points="8.1,4.1 10,6 0,15.9 	"/>
	<polygon class="st6" points="0.1,4.1 0.1,8.6 3.2,8.6 5.8,6 4,4.1 	"/>
	<polygon class="st7" points="4.2,4.1 8.1,4.1 10,6 7.4,8.6 3.5,8.6 6.1,6 	"/>
	<polygon class="st8" points="8.2,4.1 12.1,4.1 14,6 11.4,8.6 7.5,8.6 10.1,6 	"/>
	<polygon class="st9" points="12.1,4.1 15.9,4.1 17.8,6 15.2,8.6 11.4,8.6 14,6 	"/>
	<polygon class="st10" points="15.9,4.1 19.8,4.1 21.7,6 19.1,8.6 15.2,8.6 17.8,6 	"/>
	<polygon class="st11" points="19.8,4.1 23.7,4.1 25.6,6 23,8.6 19.1,8.6 21.7,6 	"/>
	<polygon class="st12" points="23.7,4.1 27.6,4.1 29.5,6 26.9,8.6 23,8.6 25.6,6 	"/>
</g>
</svg>
