<?xml version="1.0" encoding="utf-8"?>
<!-- Generator: Adobe Illustrator 15.1.0, SVG Export Plug-In . SVG Version: 6.00 Build 0)  -->
<!DOCTYPE svg PUBLIC "-//W3C//DTD SVG 1.1//EN" "http://www.w3.org/Graphics/SVG/1.1/DTD/svg11.dtd">
<svg version="1.1" id="Layer_1" xmlns="http://www.w3.org/2000/svg" xmlns:xlink="http://www.w3.org/1999/xlink" x="0px" y="0px"
	 width="500px" height="800px" viewBox="0 0 500 800" enable-background="new 0 0 500 800" xml:space="preserve">
<g>
	<g>
		<path fill="#7BC144" d="M454.984,554.341H46.624c-25.724,0-45.016-20.9-45.016-45.016v-218.65c0-25.724,20.9-45.016,45.016-45.016
			h408.36c25.723,0,45.016,20.9,45.016,45.016v218.65C500,535.048,480.707,554.341,454.984,554.341z"/>
		<rect x="1.608" y="311.576" fill="#030303" width="498.392" height="72.347"/>
		<g>
			<g>
				<path fill="#FFFFFF" d="M218.649,454.662v-8.038h20.9l-14.469,75.562c0,0-11.254,22.508-38.585,19.293
					c0,0-28.939,0-28.939-25.724h17.685c0,0,4.823,9.646,14.469,9.646c0,0,14.47,0,19.293-20.9c0,0-6.431,11.254-30.547,4.823
					c0,0-32.154-14.47-11.254-51.447C165.595,461.094,196.142,425.724,218.649,454.662z"/>
				<path fill="#7BC144" d="M202.572,459.485c0,0-16.077-6.431-22.508,20.9c0,0,0,28.939,22.508,16.077
					C202.572,496.463,225.081,469.132,202.572,459.485z"/>
			</g>
			<g>
				<path fill="#FFFFFF" d="M270.097,467.524c0,0-45.016,20.9-17.685,56.27c0,0-4.824-22.508,17.685-28.938
					C270.097,493.248,300.644,467.524,270.097,467.524z"/>
				<path fill="#FFFFFF" d="M273.312,459.485c0,0,20.9,4.823,14.469,24.116c0,0-1.607,20.9,22.508,6.431
					C310.289,491.64,326.366,448.231,273.312,459.485z"/>
				<path fill="#FFFFFF" d="M313.505,496.463c0,0-22.509,30.547-38.585,33.762c0,0-17.686,3.216-16.078-16.077
					c0,0,9.646-20.899,25.725-6.431C282.958,506.109,295.82,510.933,313.505,496.463z"/>
			</g>
			<g opacity="0.7">
				<path fill="#FFFFFF" d="M348.875,467.524c0,0-45.017,20.9-17.686,56.27c0,0-4.823-22.508,17.686-28.938
					C348.875,493.248,381.029,467.524,348.875,467.524z"/>
				<path fill="#FFFFFF" d="M353.697,459.485c0,0,20.9,4.823,14.47,24.116c0,0-1.607,20.9,22.508,6.431
					C390.675,491.64,406.752,448.231,353.697,459.485z"/>
				<path fill="#FFFFFF" d="M392.283,496.463c0,0-22.508,30.547-38.586,33.762c0,0-17.685,3.216-16.077-16.077
					c0,0,9.646-20.899,25.724-6.431C363.344,506.109,376.206,510.933,392.283,496.463z"/>
			</g>
			<g opacity="0.4">
				<path fill="#FFFFFF" d="M429.261,467.524c0,0-45.017,20.9-17.686,56.27c0,0-4.823-22.508,17.686-28.938
					C429.261,493.248,461.415,467.524,429.261,467.524z"/>
				<path fill="#FFFFFF" d="M434.084,459.485c0,0,20.9,4.823,14.469,24.116c0,0-1.607,20.9,22.509,6.431
					C471.062,491.64,485.53,448.231,434.084,459.485z"/>
				<path fill="#FFFFFF" d="M472.669,496.463c0,0-22.508,30.547-38.585,33.762c0,0-17.686,3.216-16.077-16.077
					c0,0,9.646-20.899,25.723-6.431C443.729,506.109,454.984,510.933,472.669,496.463z"/>
			</g>
		</g>
	</g>
	<polyline fill="none" stroke="#FFFFFF" stroke-width="0.25" stroke-miterlimit="10" points="65.917,311.576 96.463,342.122 
		0,436.978 	"/>
	<line fill="none" stroke="#FFFFFF" stroke-width="0.25" stroke-miterlimit="10" x1="0" y1="311.576" x2="498.393" y2="311.576"/>
	<line fill="none" stroke="#FFFFFF" stroke-width="0.25" stroke-miterlimit="10" x1="0" y1="383.923" x2="498.393" y2="383.923"/>
	<polyline fill="none" stroke="#FFFFFF" stroke-width="0.25" stroke-miterlimit="10" points="130.225,311.576 160.771,342.122 
		0,501.286 	"/>
	<polygon opacity="0.8" fill="#FFFFFF" enable-background="new    " points="1.608,311.576 1.608,383.923 58.447,383.923 
		100.248,342.122 71.309,311.576 	"/>
	<polygon opacity="0.7" fill="#FFFFFF" enable-background="new    " points="69.524,311.576 132.225,311.576 162.771,342.122 
		120.971,383.923 58.27,383.923 100.071,342.122 	"/>
	<polygon opacity="0.6" fill="#FFFFFF" enable-background="new    " points="131.833,311.576 194.534,311.576 225.081,342.122 
		183.28,383.923 120.579,383.923 162.379,342.122 	"/>
	<polygon opacity="0.5" fill="#FFFFFF" enable-background="new    " points="194.534,311.576 255.627,311.576 286.174,342.122 
		244.373,383.923 183.28,383.923 225.081,342.122 	"/>
	<polygon opacity="0.4" fill="#FFFFFF" enable-background="new    " points="255.627,311.576 318.328,311.576 348.875,342.122 
		307.074,383.923 244.373,383.923 286.174,342.122 	"/>
	<polygon opacity="0.3" fill="#FFFFFF" enable-background="new    " points="318.328,311.576 381.029,311.576 411.575,342.122 
		369.775,383.923 307.074,383.923 348.875,342.122 	"/>
	<polygon opacity="0.2" fill="#FFFFFF" enable-background="new    " points="381.029,311.576 443.729,311.576 474.276,342.122 
		432.476,383.923 369.775,383.923 411.575,342.122 	"/>
</g>
</svg>
